# xmcd CD database file
# Copyright (C) 1996 Ti Kan
#
# Track frame offsets:
#  150
#  11295
#  27767
#  46232
#  62225
#  77050
#  94072
#  106325
#  122505
#  134827
#  149142
#  169000
#
# Disc length: 2474 seconds
#
# Revision: 2
# Processed by: cddbd v1.4b41PL1 Copyright (c) Steve Scherf et al.
# Submitted via: CDWizzard Release:4.12
#
DISCID=a009a80c
DTITLE=Eddie Taylor - I Feel So Bad
DYEAR=1900
DGENRE=
TTITLE0=I Feel So Bad
TTITLE1=Jackson Town
TTITLE2=Stop Breaking Down
TTITLE3=13 Highway
TTITLE4=Stroll Out West
TTITLE5=Sittin' Here Thinkin'
TTITLE6=Going Upside Your Head
TTITLE7=Twelve Year Old Boy
TTITLE8=There'll Be A Day
TTITLE9=Bullcow Blues
TTITLE10=Wreck On 83 Highway
TTITLE11=Blues In The Rain
EXTD=Highton 8027\n\nEddie Taylor:  vocal and guitar\nPhillip Walker:  gu
EXTD=itar\nDavid II:  saxophone and percussion\nGeorge Smith:  Harmonica\n
EXTD=Jimmy Sones:  piano\nCharles Jones:  bass\nJohnny Tucker:  drums\nLi
EXTD=ttle H. Williams:  percussion\n\nProduced by Frank Scott
EXTT0=
EXTT1=
EXTT2=
EXTT3=
EXTT4=
EXTT5=
EXTT6=
EXTT7=
EXTT8=
EXTT9=
EXTT10=
EXTT11=
PLAYORDER=
